HIERARCHY
ROOT Hips
{
	OFFSET 0.00000 0.00000 0.00000
	CHANNELS 6 Xposition Yposition Zposition Zrotation Yrotation Xrotation 
	JOINT LHipJoint
	{
		OFFSET 0 0 0
		CHANNELS 3 Zrotation Yrotation Xrotation
		JOINT LeftUpLeg
		{
			OFFSET 1.92384 -1.64427 0.83032
			CHANNELS 3 Zrotation Yrotation Xrotation
			JOINT LeftLeg
			{
				OFFSET 2.52872 -6.94761 0.00000
				CHANNELS 3 Zrotation Yrotation Xrotation
				JOINT LeftFoot
				{
					OFFSET 2.51827 -6.91890 0.00000
					CHANNELS 3 Zrotation Yrotation Xrotation
					JOINT LeftToeBase
					{
						OFFSET 0.22757 -0.62524 2.06528
						CHANNELS 3 Zrotation Yrotation Xrotation
						End Site
						{
							OFFSET 0.00000 -0.00000 1.08218
						}
					}
				}
			}
		}
	}
	JOINT RHipJoint
	{
		OFFSET 0 0 0
		CHANNELS 3 Zrotation Yrotation Xrotation
		JOINT RightUpLeg
		{
			OFFSET -2.09517 -1.64427 0.83032
			CHANNELS 3 Zrotation Yrotation Xrotation
			JOINT RightLeg
			{
				OFFSET -2.55173 -7.01082 0.00000
				CHANNELS 3 Zrotation Yrotation Xrotation
				JOINT RightFoot
				{
					OFFSET -2.50265 -6.87598 0.00000
					CHANNELS 3 Zrotation Yrotation Xrotation
					JOINT RightToeBase
					{
						OFFSET -0.22612 -0.62126 1.98677
						CHANNELS 3 Zrotation Yrotation Xrotation
						End Site
						{
							OFFSET -0.00000 -0.00000 1.04433
						}
					}
				}
			}
		}
	}
	JOINT LowerBack
	{
		OFFSET 0 0 0
		CHANNELS 3 Zrotation Yrotation Xrotation
		JOINT Spine
		{
			OFFSET 0.02839 1.68926 0.31690
			CHANNELS 3 Zrotation Yrotation Xrotation
			JOINT Spine1
			{
				OFFSET -0.01522 1.70183 0.21192
				CHANNELS 3 Zrotation Yrotation Xrotation
				JOINT Neck
				{
					OFFSET 0 0 0
					CHANNELS 3 Zrotation Yrotation Xrotation
					JOINT Neck1
					{
						OFFSET -0.04523 1.88988 0.10630
						CHANNELS 3 Zrotation Yrotation Xrotation
						JOINT Head
						{
							OFFSET 0.05172 1.78070 -0.56858
							CHANNELS 3 Zrotation Yrotation Xrotation
							End Site
							{
								OFFSET 0.01532 1.90392 -0.20434
							}
						}
					}
				}
				JOINT LeftShoulder
				{
					OFFSET 0 0 0
					CHANNELS 3 Zrotation Yrotation Xrotation
					JOINT LeftArm
					{
						OFFSET 3.25522 0.75486 0.22086
						CHANNELS 3 Zrotation Yrotation Xrotation
						JOINT LeftForeArm
						{
							OFFSET 4.85645 -0.00000 0.00000
							CHANNELS 3 Zrotation Yrotation Xrotation
							JOINT LeftHand
							{
								OFFSET 2.79874 -0.00000 0.00000
								CHANNELS 3 Zrotation Yrotation Xrotation
								JOINT LeftFingerBase
								{
									OFFSET 0 0 0
									CHANNELS 3 Zrotation Yrotation Xrotation
									JOINT LeftHandIndex1
									{
										OFFSET 0.57340 -0.00000 0.00000
										CHANNELS 3 Zrotation Yrotation Xrotation
										End Site
										{
											OFFSET 0.46229 -0.00000 0.00000
										}
									}
								}
								JOINT LThumb
								{
									OFFSET 0 0 0
									CHANNELS 3 Zrotation Yrotation Xrotation
									End Site
									{
										OFFSET 0.46935 -0.00000 0.46935
									}
								}
							}
						}
					}
				}
				JOINT RightShoulder
				{
					OFFSET 0 0 0
					CHANNELS 3 Zrotation Yrotation Xrotation
					JOINT RightArm
					{
						OFFSET -3.29079 0.52751 0.36356
						CHANNELS 3 Zrotation Yrotation Xrotation
						JOINT RightForeArm
						{
							OFFSET -4.67018 -0.00000 0.00000
							CHANNELS 3 Zrotation Yrotation Xrotation
							JOINT RightHand
							{
								OFFSET -2.65534 -0.00000 0.00000
								CHANNELS 3 Zrotation Yrotation Xrotation
								JOINT RightFingerBase
								{
									OFFSET 0 0 0
									CHANNELS 3 Zrotation Yrotation Xrotation
									JOINT RightHandIndex1
									{
										OFFSET -0.59407 -0.00000 0.00000
										CHANNELS 3 Zrotation Yrotation Xrotation
										End Site
										{
											OFFSET -0.47895 -0.00000 0.00000
										}
									}
								}
								JOINT RThumb
								{
									OFFSET 0 0 0
									CHANNELS 3 Zrotation Yrotation Xrotation
									End Site
									{
										OFFSET -0.48627 -0.00000 0.48627
									}
								}
							}
						}
					}
				}
			}
		}
	}
}
MOTION
Frames: 7
Frame Time: 0.05
0.00 0.00 0.00 361.1140 -4.1723 35.5959 0.0000 0.0000 0.0000 -20.5337 -20.0743 -44.5346 3.6688 11.7061 34.7001 1.1130 3.6660 -21.5637 0.7673 -5.5936 -15.6095 0.0000 0.0000 0.0000 4.2468 21.9686 -65.6698 -4.4877 -12.7826 38.5600 -0.2804 -7.8788 -15.8236 -0.0870 1.9027 -5.2369 -2.4607 -0.1525 -20.8924 0.1570 0.1367 -15.5044 1.5747 0.2689 -5.3209 -4.1771 -2.5997 -12.9863 0.1082 -2.8943 43.1796 0.2492 -1.8795 18.5591 0.0000 0.0000 0.0000 -42.1831 36.2448 87.2611 100.2864 -59.5964 -68.8962 -0.0000 0.0000 -52.6251 -15.7678 34.3434 -9.0510 -7.1250 0.0000 -0.0000 -52.0983 56.5717 -18.1295 0.0000 0.0000 0.0000 51.9107 -36.2756 75.2004 -95.8537 59.8701 -65.0672 0.0000 -0.0000 -43.8736 11.6748 -23.0824 -4.6315 7.1250 -0.0000 -0.0000 38.9906 -48.8779 -4.3401
0.00 0.00 0.00 357.7720 1.3734 34.2821 0.0000 0.0000 0.0000 -6.8793 -20.1144 -64.6937 8.0261 16.1384 52.6565 -0.0434 8.7615 -11.6349 0.7078 -5.3769 -14.9869 0.0000 0.0000 0.0000 19.5373 17.1055 -48.1099 -4.0611 -12.2412 36.5907 -1.2549 -0.3312 -21.3065 -0.0000 -0.0364 0.0999 1.5088 0.2730 -20.6767 0.6064 0.1472 -15.1887 -0.1754 -0.0089 -5.0412 -4.6467 -2.8267 -12.7345 -0.5818 -2.7238 45.2879 0.0102 -1.9846 19.8777 -0.0000 -0.0000 0.0000 -43.1784 37.4500 86.1777 92.4251 -59.9778 -62.1001 -0.0000 0.0000 -38.5585 -28.6322 26.3912 -13.6404 -7.1250 0.0000 -0.0000 -54.5443 48.6584 -6.8459 -0.0000 -0.0000 0.0000 53.0034 -31.9366 75.6351 -83.0540 59.8169 -53.9883 0.0000 -0.0000 -39.4172 17.8062 -14.4869 -4.5937 7.1250 -0.0000 -0.0000 38.7902 -41.0302 4.6115
0.00 0.00 0.00 357.2440 0.6398 34.6277 0.0000 0.0000 0.0000 10.8302 -31.0498 -60.4473 1.1903 6.9233 19.4882 -1.8026 23.0511 -11.2994 0.2415 -3.1625 -8.7315 0.0000 0.0000 0.0000 21.3764 15.8181 -37.4259 -2.4778 -9.7975 28.3234 -1.3125 -2.2362 -22.5519 -0.0334 1.1798 -3.2436 2.3210 0.6603 -21.4242 0.0362 0.4957 -15.5923 -1.1858 0.0624 -5.1311 -4.5604 -2.9652 -12.7818 0.0131 -3.2773 45.5502 0.1745 -2.1178 20.1044 -0.0000 0.0000 0.0000 -48.1585 37.6794 73.0870 78.3150 -59.4777 -49.8982 -0.0000 0.0000 -32.4217 -29.3825 25.7688 -13.7549 -7.1250 0.0000 -0.0000 -54.5165 48.0915 -5.8308 -0.0000 0.0000 0.0000 60.7403 -29.0447 67.6230 -62.8905 57.0322 -36.7564 0.0000 -0.0000 -33.5499 6.6855 -20.3649 -2.3359 7.1250 -0.0000 -0.0000 33.1286 -47.3512 -2.1505
0.00 0.00 0.00 361.8630 -1.1692 33.1015 0.0000 0.0000 0.0000 -9.1613 -25.8646 -55.8089 2.3512 9.5622 27.5703 -0.1609 7.1904 -3.8965 0.6577 -5.1871 -14.4429 0.0000 0.0000 0.0000 14.9741 16.0921 -31.1640 -5.0933 -13.4881 41.2241 -1.1907 -8.0386 -24.9723 -0.5200 4.6217 -12.8326 -2.9393 -0.9552 -21.4049 -0.2399 -0.8204 -16.5317 1.2649 -0.1680 -6.2332 -5.8081 -3.5238 -12.4796 -0.5686 -3.6018 46.3207 0.0179 -2.5747 20.6270 -0.0000 -0.0000 0.0000 -62.6857 33.8386 49.0033 44.9938 -50.7654 -22.2340 -0.0000 0.0000 -14.0821 5.2910 31.9517 2.8058 -7.1250 0.0000 -0.0000 -30.2732 59.3903 -11.2722 -0.0000 -0.0000 0.0000 73.6792 -24.5102 35.7211 -24.8233 36.0229 -8.1858 0.0000 0.0000 6.6045 -19.6242 -18.9912 6.6186 7.1250 -0.0000 -0.0000 8.5304 -49.8590 -1.0285
0.00 0.00 0.00 536.7860 -67.6100 -139.6880 0.0000 0.0000 0.0000 -22.8499 -13.4186 -43.9115 1.9543 8.7702 25.0791 -1.5259 24.9607 -23.7210 0.0007 0.1682 0.4622 0.0000 0.0000 0.0000 -6.3066 23.0493 -56.2568 -2.6361 -10.0812 29.2400 0.2392 -22.0942 -29.5038 -0.4459 -4.2842 11.8775 -4.8740 0.5418 -21.6915 0.3299 -0.8414 -17.2992 3.0946 -0.9408 -7.0966 -13.7723 -9.5969 -9.7362 11.0499 -18.6611 36.2387 3.5166 -9.3332 17.4094 -0.0000 -0.0000 0.0000 -75.3355 19.0697 25.8599 18.2154 -28.4321 -4.6513 -0.0000 0.0000 -4.8764 26.1594 34.2009 15.4344 -7.1250 0.0000 -0.0000 -9.0443 66.9051 -4.7881 -0.0000 -0.0000 0.0000 64.8891 -18.8812 9.7071 -15.2818 24.5372 -3.3421 0.0000 0.0000 14.7482 -10.0200 -16.6304 2.8948 7.1250 -0.0000 -0.0000 16.7212 -46.1527 -0.4893
0.00 0.00 0.00 537.2120 -60.1840 -139.8620 0.0000 0.0000 0.0000 -25.4602 -10.8365 -44.5324 1.9995 8.8650 25.3739 -1.9212 27.3269 -25.4668 0.0056 0.4823 1.3252 0.0000 0.0000 0.0000 -6.6099 24.6566 -57.6018 -2.5022 -9.8420 28.4665 -2.0207 -26.7005 -46.2782 -1.8706 -8.5912 24.5247 -5.2568 0.5000 -21.5538 0.4421 -1.0202 -17.2297 3.4162 -1.0683 -7.0823 -14.3483 -9.6825 -9.4094 11.4263 -19.0990 35.8929 3.6693 -9.6394 17.3628 -0.0000 -0.0000 0.0000 -76.6959 18.5640 25.0274 17.5258 -27.5457 -4.3277 -0.0000 0.0000 -4.1458 26.0558 35.1378 15.7169 -7.1250 0.0000 -0.0000 -10.0049 67.8074 -5.5064 -0.0000 -0.0000 0.0000 64.8129 -18.1314 10.5223 -15.6112 24.9906 -3.4801 0.0000 0.0000 14.0870 -9.9340 -17.3471 2.9893 7.1250 -0.0000 -0.0000 17.0569 -46.8332 -0.7941
0.00 0.00 0.00 539.6960 3.7441 -146.7400 0.0000 0.0000 0.0000 -8.2760 -19.0389 -63.9353 7.4283 15.6822 50.4763 -0.1067 9.9825 -12.2979 0.6132 -5.0118 -13.9422 0.0000 0.0000 0.0000 18.3213 20.1863 -44.4919 -4.0226 -12.1904 36.4087 -1.3792 1.6781 -21.7214 -0.0005 0.1452 -0.3989 1.7902 -4.4015 -21.7541 2.2100 -1.6227 -16.8706 0.9217 1.0958 -6.5210 -16.3285 -12.7986 -7.9399 5.2973 -15.0726 29.3400 2.6384 -7.2774 12.8656 -0.0000 0.0000 0.0000 -82.1075 17.3998 -2.5802 19.5635 -30.1129 -5.3106 -0.0000 0.0000 -10.3764 29.8592 35.9147 18.6106 -7.1250 0.0000 -0.0000 -5.5088 69.7749 -3.2681 -0.0000 0.0000 0.0000 70.7413 -0.8422 25.3294 -17.1374 27.0386 -4.1496 0.0000 0.0000 12.6802 -18.4807 -24.6339 7.9308 7.1250 -0.0000 -0.0000 11.8324 -55.3908 -3.0492
